<svg width="41" height="41" viewBox="0 0 41 41" fill="none" xmlns="http://www.w3.org/2000/svg">
<path d="M17.0542 18.7031C17.391 18.4593 17.5535 18.0567 17.5535 17.5033C17.5651 17.2401 17.511 16.9807 17.3948 16.7446C17.2903 16.555 17.1355 16.3963 16.9459 16.284C16.7492 16.1648 16.5308 16.0858 16.3033 16.0518C16.0556 16.0054 15.804 15.9821 15.5563 15.986H12.8353V19.0708H15.7808C16.2879 19.0747 16.7175 18.9508 17.0542 18.7031ZM17.511 21.4899C17.1316 21.1996 16.6246 21.0564 15.9937 21.0564H12.8276V24.6948H15.9318C16.2221 24.6948 16.4891 24.6677 16.7485 24.6135C16.9938 24.5655 17.2277 24.4709 17.4374 24.3348C17.6348 24.2071 17.7935 24.0329 17.9135 23.8084C18.0296 23.5839 18.0877 23.2975 18.0877 22.953C18.0877 22.2679 17.8941 21.7841 17.511 21.4899ZM20.6035 2.97705C11.0278 2.97705 3.26343 10.7414 3.26343 20.3172C3.26343 29.8929 11.0278 37.6573 20.6035 37.6573C30.1793 37.6573 37.9436 29.8929 37.9436 20.3172C37.9436 10.7414 30.1793 2.97705 20.6035 2.97705ZM23.9516 14.0817H29.3084V15.3861H23.9516V14.0817ZM20.6035 24.838C20.353 25.3136 19.9952 25.7244 19.5585 26.0378C19.1018 26.3552 18.5947 26.5875 18.0567 26.7229C17.4938 26.8738 16.9132 26.948 16.3304 26.9435H9.92079V13.7411H16.1524C16.7833 13.7411 17.3561 13.7991 17.8787 13.9075C18.3973 14.0159 18.8386 14.2017 19.2101 14.4533C19.5778 14.7048 19.8681 15.0416 20.0733 15.4596C20.2745 15.8738 20.379 16.3924 20.379 17.0078C20.379 17.6736 20.2281 18.2232 19.9262 18.6683C19.6204 19.1134 19.1792 19.4734 18.5792 19.7559C19.3959 19.9882 19.9959 20.4023 20.3906 20.9829C20.7932 21.5712 20.9906 22.2757 20.9906 23.104C20.9906 23.7774 20.8629 24.3541 20.6035 24.838ZM31.3946 22.7943H24.4896C24.4896 23.5452 24.7489 24.2651 25.1398 24.6522C25.5346 25.0354 26.0997 25.2289 26.839 25.2289C27.3731 25.2289 27.826 25.0934 28.213 24.8264C28.5962 24.5593 28.8285 24.2767 28.9136 23.9826H31.2282C30.8566 25.1321 30.2915 25.9527 29.5252 26.4481C28.7665 26.9435 27.8376 27.1913 26.7577 27.1913C26.003 27.1913 25.3256 27.0674 24.7179 26.8313C24.1335 26.6029 23.6071 26.2546 23.1736 25.8056C22.7462 25.3445 22.4158 24.8022 22.2021 24.2109C21.966 23.5568 21.8498 22.8678 21.8576 22.175C21.8576 21.459 21.9776 20.7932 22.2098 20.1739C22.6549 18.9702 23.58 18.0064 24.7605 17.5071C25.3914 17.2439 26.0688 17.1123 26.7538 17.1201C27.5667 17.1201 28.2711 17.2749 28.8827 17.5923C29.4714 17.8954 29.9826 18.3297 30.3767 18.8618C30.7676 19.3921 31.0424 19.9959 31.2166 20.6771C31.383 21.3467 31.4411 22.0512 31.3946 22.7943ZM26.6726 19.0941C26.2545 19.0941 25.9023 19.1676 25.6314 19.3108C25.3604 19.454 25.136 19.6321 24.9656 19.8372C24.8035 20.0353 24.6836 20.2645 24.6134 20.5107C24.5515 20.7158 24.5089 20.9248 24.4934 21.1377H28.7704C28.7085 20.4681 28.4762 19.9727 28.1666 19.6243C27.8415 19.2798 27.3189 19.0941 26.6726 19.0941Z" fill="#656579"/>
<path d="M39.1822 20.3172C39.1822 30.5779 30.8642 38.8959 20.6035 38.8959C10.3428 38.8959 2.02484 30.5779 2.02484 20.3172C2.02484 10.0565 10.3428 1.73853 20.6035 1.73853C30.8642 1.73853 39.1822 10.0565 39.1822 20.3172ZM6.52245 20.3172C6.52245 28.094 12.8268 34.3983 20.6035 34.3983C28.3803 34.3983 34.6846 28.094 34.6846 20.3172C34.6846 12.5404 28.3803 6.23613 20.6035 6.23613C12.8268 6.23613 6.52245 12.5404 6.52245 20.3172Z" fill="#656579"/>
</svg>
