<svg width="23" height="22" viewBox="0 0 23 22" fill="none" xmlns="http://www.w3.org/2000/svg">
<path d="M11.3334 1.83325C6.3641 1.83325 2.16669 6.03159 2.16669 10.9999C2.16669 15.9683 6.3641 20.1666 11.3334 20.1666C16.3026 20.1666 20.5 15.9683 20.5 10.9999C20.5 6.03159 16.3026 1.83325 11.3334 1.83325ZM11.3334 13.7499C12.2427 13.7499 13.0292 13.507 13.4353 13.1009L14.7314 14.398C13.6993 15.4293 12.1593 15.5833 11.3334 15.5833C8.8061 15.5833 6.75002 13.5272 6.75002 10.9999C6.75002 8.47267 8.8061 6.41659 11.3334 6.41659C12.1593 6.41659 13.7002 6.57059 14.7314 7.60184L13.4353 8.898C13.0301 8.49192 12.2436 8.24992 11.3334 8.24992C9.84285 8.24992 8.58335 9.50942 8.58335 10.9999C8.58335 12.4904 9.84285 13.7499 11.3334 13.7499Z" fill="#656579"/>
</svg>
