<svg width="40" height="41" viewBox="0 0 40 41" fill="none" xmlns="http://www.w3.org/2000/svg">
<path d="M19.8178 2.97705C10.242 2.97705 2.47766 10.7414 2.47766 20.3172C2.47766 29.8929 10.242 37.6573 19.8178 37.6573C29.3935 37.6573 37.1579 29.8929 37.1579 20.3172C37.1579 10.7414 29.3935 2.97705 19.8178 2.97705ZM28.1511 16.0479C28.1627 16.2298 28.1627 16.4195 28.1627 16.6053C28.1627 22.2873 23.8354 28.8324 15.9279 28.8324C13.4894 28.8324 11.229 28.1241 9.32468 26.9048C9.67303 26.9435 10.0059 26.959 10.362 26.959C12.3747 26.959 14.2248 26.2778 15.6995 25.1244C13.8107 25.0857 12.2237 23.8471 11.6818 22.1441C12.3437 22.2408 12.9398 22.2408 13.621 22.0666C12.6484 21.8691 11.7743 21.3408 11.147 20.5718C10.5197 19.8027 10.1781 18.8402 10.1801 17.8477V17.7935C10.749 18.1148 11.4187 18.3122 12.1192 18.3393C11.5303 17.9468 11.0473 17.415 10.7131 16.7912C10.3789 16.1673 10.2038 15.4706 10.2033 14.7629C10.2033 13.9617 10.4123 13.2302 10.7878 12.5954C11.8673 13.9243 13.2143 15.0112 14.7414 15.7854C16.2685 16.5596 17.9413 17.0038 19.6513 17.0891C19.0437 14.1668 21.2266 11.8019 23.8509 11.8019C25.0895 11.8019 26.2042 12.3206 26.9899 13.1566C27.9614 12.9747 28.8904 12.6109 29.7187 12.1232C29.3974 13.1179 28.7239 13.9578 27.8298 14.4881C28.6968 14.3952 29.5329 14.1552 30.307 13.8185C29.7225 14.6777 28.991 15.4402 28.1511 16.0479Z" fill="#656579"/>
<path d="M38.3964 20.3172C38.3964 30.5779 30.0785 38.8959 19.8178 38.8959C9.55703 38.8959 1.23907 30.5779 1.23907 20.3172C1.23907 10.0565 9.55703 1.73853 19.8178 1.73853C30.0785 1.73853 38.3964 10.0565 38.3964 20.3172ZM5.73668 20.3172C5.73668 28.094 12.041 34.3983 19.8178 34.3983C27.5945 34.3983 33.8988 28.094 33.8988 20.3172C33.8988 12.5404 27.5945 6.23613 19.8178 6.23613C12.041 6.23613 5.73668 12.5404 5.73668 20.3172Z" fill="#656579"/>
</svg>
